<svg width="40" height="40" viewBox="0 0 40 40" fill="none" xmlns="http://www.w3.org/2000/svg">
  <path d="M14.9004 0H37.1272C38.7113 0 39.9999 1.282 40 2.85774V24.9683C40 26.5442 38.7113 27.8262 37.1272 27.8262H30.5949V25.2175H37.1272C37.1936 25.2174 37.2573 25.1911 37.3042 25.1444C37.3511 25.0977 37.3775 25.0344 37.3776 24.9683V2.85774C37.3775 2.79172 37.3511 2.72843 37.3042 2.68174C37.2572 2.63506 37.1936 2.60879 37.1272 2.6087H14.9004C14.8341 2.60879 14.7704 2.63506 14.7235 2.68174C14.6766 2.72843 14.6502 2.79172 14.6501 2.85774V9.56504H12.0277V2.85774C12.0277 1.282 13.3163 0 14.9004 0Z" fill="currentColor"/>
  <path fill-rule="evenodd" clip-rule="evenodd" d="M2.87285 12.1737H25.0996C26.6837 12.1737 27.9726 13.4557 27.9725 15.0316V37.1423C27.9725 38.718 26.6838 40 25.0997 40H2.87285C1.28874 40 8.74176e-05 38.718 0 37.1422V15.0316C0 13.4557 1.28874 12.1737 2.87285 12.1737ZM2.87285 37.3913H25.0997C25.1661 37.3912 25.2298 37.365 25.2767 37.3183C25.3237 37.2716 25.3501 37.2083 25.3502 37.1423H25.3501V15.0316C25.35 14.9655 25.3236 14.9022 25.2767 14.8555C25.2297 14.8088 25.1661 14.7825 25.0997 14.7824H2.87285C2.80645 14.7825 2.74279 14.8088 2.69583 14.8555C2.64888 14.9022 2.62248 14.9655 2.62241 15.0316V37.1423C2.6225 37.2083 2.64892 37.2716 2.69587 37.3183C2.74281 37.365 2.80646 37.3912 2.87285 37.3913Z" fill="currentColor"/>
</svg>
