<svg width="39" height="39" viewBox="0 0 39 39" fill="none" xmlns="http://www.w3.org/2000/svg">
<path d="M19.375 2.5C28.5938 2.5 36.25 10.0781 36.25 19.375C36.25 28.75 28.6719 36.25 19.375 36.25C10 36.25 2.5 28.75 2.5 19.375C2.5 10.0781 10 2.5 19.375 2.5ZM19.375 0C8.67188 0 0 8.75 0 19.375C0 30.0781 8.67188 38.75 19.375 38.75C30 38.75 38.75 30.0781 38.75 19.375C38.75 8.75 30 0 19.375 0ZM16.5625 26.875C16.0156 26.875 15.625 27.3438 15.625 27.8125V28.4375C15.625 28.9844 16.0156 29.375 16.5625 29.375H22.1875C22.6562 29.375 23.125 28.9844 23.125 28.4375V27.8125C23.125 27.3438 22.6562 26.875 22.1875 26.875H21.25V15.9375C21.25 15.4688 20.7812 15 20.3125 15H16.5625C16.0156 15 15.625 15.4688 15.625 15.9375V16.5625C15.625 17.1094 16.0156 17.5 16.5625 17.5H17.5V26.875H16.5625ZM19.375 8.125C17.9688 8.125 16.875 9.29688 16.875 10.625C16.875 12.0312 17.9688 13.125 19.375 13.125C20.7031 13.125 21.875 12.0312 21.875 10.625C21.875 9.29688 20.7031 8.125 19.375 8.125Z" fill="#A1AFBF"/>
</svg>
