<svg width="30" height="40" viewBox="0 0 30 40" fill="none" xmlns="http://www.w3.org/2000/svg">
<path d="M3 9.5C3 5.91015 5.91015 3 9.5 3H15V15H3V9.5Z" fill="#CFDCEA"/>
<path d="M17.5 0H12.5C5.54688 0 0 5.625 0 12.5V27.5C0 34.4531 5.54688 40 12.5 40H17.5C24.375 40 30 34.4531 30 27.5V12.5C30 5.625 24.375 0 17.5 0ZM26.25 12.5V13.75H16.875V3.75H17.5C22.2656 3.82812 26.1719 7.73438 26.25 12.5ZM12.5 3.75H13.125V13.75H3.75V12.5C3.75 7.73438 7.65625 3.82812 12.5 3.75ZM17.5 36.25H12.5C7.65625 36.25 3.75 32.3438 3.75 27.5V17.5H26.25V27.5C26.1719 32.3438 22.2656 36.25 17.5 36.25Z" fill="#A1AFBF"/>
</svg>
