<svg width="40" height="40" viewBox="0 0 40 40" fill="none" xmlns="http://www.w3.org/2000/svg">
<path d="M37.7344 2.26562L33.6719 6.32812C30.1562 2.8125 25.3125 0.625 20 0.625C9.29688 0.625 0.546875 9.375 0.625 20.0781C0.625 30.7812 9.29688 39.375 20 39.375C24.9219 39.375 29.5312 37.5 32.9688 34.4531C33.3594 34.0625 33.3594 33.4375 32.9688 33.0469L31.4062 31.4844C31.0938 31.1719 30.5469 31.1719 30.1562 31.4844C27.4219 33.9062 23.9062 35.3125 20 35.3125C11.4844 35.3125 4.6875 28.5156 4.6875 20C4.6875 11.5625 11.4844 4.6875 20 4.6875C24.2188 4.6875 28.0469 6.40625 30.7812 9.21875L26.5625 13.4375C25.9375 14.0625 26.4062 15 27.1875 15H38.4375C38.9062 15 39.375 14.6094 39.375 14.0625V2.89062C39.375 2.10938 38.3594 1.64062 37.7344 2.26562Z" fill="#A1AFBF"/>
</svg>
