<svg width="40" height="39" viewBox="0 0 40 39" fill="none" xmlns="http://www.w3.org/2000/svg">
<path d="M37.7344 1.64062L33.6719 5.70312C30.1562 2.1875 25.3125 0 20 0C9.29688 0 0.546875 8.75 0.625 19.4531C0.625 30.1562 9.29688 38.75 20 38.75C24.9219 38.75 29.5312 36.875 32.9688 33.8281C33.3594 33.4375 33.3594 32.8125 32.9688 32.4219L31.4062 30.8594C31.0938 30.5469 30.5469 30.5469 30.1562 30.8594C27.4219 33.2812 23.9062 34.6875 20 34.6875C11.4844 34.6875 4.6875 27.8906 4.6875 19.375C4.6875 10.9375 11.4844 4.0625 20 4.0625C24.2188 4.0625 28.0469 5.78125 30.7812 8.59375L26.5625 12.8125C25.9375 13.4375 26.4062 14.375 27.1875 14.375H38.4375C38.9062 14.375 39.375 13.9844 39.375 13.4375V2.26562C39.375 1.48438 38.3594 1.01562 37.7344 1.64062Z" fill="white"/>
</svg>
