<svg width="39" height="39" viewBox="0 0 39 39" fill="none" xmlns="http://www.w3.org/2000/svg">
<path d="M37.1099 1.64062L33.0474 5.70312C29.5318 2.1875 24.688 0 19.3755 0C8.67239 0 -0.0776059 8.75 0.000519126 19.4531C0.000519126 30.1562 8.67239 38.75 19.3755 38.75C24.2974 38.75 28.9068 36.875 32.3443 33.8281C32.7349 33.4375 32.7349 32.8125 32.3443 32.4219L30.7818 30.8594C30.4693 30.5469 29.9224 30.5469 29.5318 30.8594C26.7974 33.2812 23.2818 34.6875 19.3755 34.6875C10.8599 34.6875 4.06302 27.8906 4.06302 19.375C4.06302 10.9375 10.8599 4.0625 19.3755 4.0625C23.5943 4.0625 27.4224 5.78125 30.1568 8.59375L25.938 12.8125C25.313 13.4375 25.7818 14.375 26.563 14.375H37.813C38.2818 14.375 38.7505 13.9844 38.7505 13.4375V2.26562C38.7505 1.48438 37.7349 1.01562 37.1099 1.64062Z" fill="#5BA551"/>
</svg>
