<svg width="39" height="39" viewBox="0 0 39 39" fill="none" xmlns="http://www.w3.org/2000/svg">
<path d="M37.1179 1.64062L33.0554 5.70312C29.5398 2.1875 24.6961 0 19.3836 0C8.99293 0 0.4773 8.20312 0.00854972 18.4375C-0.0695753 18.9844 0.399175 19.375 0.94605 19.375H3.13355C3.6023 19.375 3.99292 19.0625 4.07105 18.5156C4.5398 10.4688 11.1804 4.0625 19.3836 4.0625C23.6023 4.0625 27.4304 5.78125 30.1648 8.59375L25.9461 12.8125C25.3211 13.4375 25.7898 14.375 26.5711 14.375H37.821C38.2898 14.375 38.7585 13.9844 38.7585 13.4375V2.26562C38.7585 1.48438 37.7429 1.01562 37.1179 1.64062ZM37.7429 19.375H35.5554C35.0867 19.375 34.696 19.7656 34.6179 20.3125C34.1492 28.3594 27.5086 34.6875 19.3836 34.6875C15.0867 34.6875 11.2585 33.0469 8.52417 30.2344L12.7429 26.0156C13.3679 25.3906 12.8992 24.375 12.1179 24.375H0.94605C0.399175 24.375 0.00854972 24.8438 0.00854972 25.3125V36.5625C0.00854972 37.3438 0.94605 37.8125 1.57105 37.1875L5.63355 33.125C9.14917 36.6406 13.9929 38.75 19.3836 38.75C29.6961 38.75 38.2117 30.625 38.6804 20.3906C38.7585 19.8438 38.2898 19.375 37.7429 19.375Z" fill="#18A0FB"/>
</svg>
