<svg width="512" height="512" viewBox="0 0 512 512" fill="none" xmlns="http://www.w3.org/2000/svg">
<g clip-path="url(#clip0)">
<rect width="512" height="512" rx="256" fill="#5BA551"/>
<path fill-rule="evenodd" clip-rule="evenodd" d="M114.833 178.828C101.025 178.828 89.8326 167.635 89.8326 153.828L89.8326 23.828C89.8326 10.0209 101.025 -1.17201 114.833 -1.17201C128.64 -1.17201 139.833 10.0209 139.833 23.828V94.0458C156.399 82.1581 174.794 72.8103 194.426 66.4313C234.446 53.4282 277.554 53.4282 317.573 66.4313C357.593 79.4343 392.468 104.773 417.201 138.815C441.935 172.858 455.256 213.856 455.256 255.935C455.256 269.742 444.063 280.935 430.256 280.935C416.449 280.935 405.256 269.742 405.256 255.935C405.256 224.415 395.277 193.704 376.75 168.204C358.224 142.704 332.1 123.724 302.123 113.984C272.145 104.244 239.854 104.244 209.877 113.984C180.186 123.631 154.275 142.343 135.782 167.476C131.32 174.311 123.604 178.828 114.833 178.828ZM194.427 445.439C234.446 458.442 277.554 458.442 317.574 445.439C337.14 439.081 355.477 429.775 372 417.944V488C372 501.807 383.193 513 397 513C410.807 513 422 501.807 422 488V358C422 344.193 410.807 333 397 333C387.63 333 379.464 338.155 375.183 345.783C356.764 370.217 331.264 388.417 302.123 397.886C272.146 407.626 239.855 407.626 209.878 397.886C179.9 388.146 153.776 369.165 135.25 343.665C116.723 318.165 106.744 287.455 106.744 255.935C106.744 242.128 95.5513 230.935 81.7442 230.935C67.9371 230.935 56.7442 242.128 56.7442 255.935C56.7442 298.014 70.0655 339.012 94.7987 373.055C119.532 407.097 154.407 432.436 194.427 445.439Z" fill="white"/>
</g>
<defs>
<clipPath id="clip0">
<rect width="512" height="512" rx="256" fill="white"/>
</clipPath>
</defs>
</svg>
